<?xml version="1.0" standalone="no"?><!DOCTYPE svg PUBLIC "-//W3C//DTD SVG 1.1//EN" "http://www.w3.org/Graphics/SVG/1.1/DTD/svg11.dtd"><svg class="icon" width="16px" height="16.00px" viewBox="0 0 1024 1024" version="1.1" xmlns="http://www.w3.org/2000/svg"><path d="M 164.489 501.956 c 1.93707 4.0704 4.00213 8.07253 6.20373 12.0661 c 9.3952 16.896 20.9067 32.2901 34.5088 46.0117 c 13.5765 13.7899 28.6805 24.9685 45.312 33.5275 c 16.6144 8.6272 34.3552 12.9621 53.1115 12.9621 c 21.7429 0 42.1461 -5.2992 61.1925 -15.9232 s 35.8656 -24.3541 50.3552 -41.3184 c 14.4896 -16.9045 25.856 -35.9339 34.0053 -57.1904 c 7.3728 -19.1744 11.4603 -38.272 12.1429 -57.4635 c -55.5349 -17.8603 -95.8208 -69.9392 -95.8208 -131.405 c 0 -76.1515 61.7984 -137.958 137.958 -137.958 l 0.759467 0 c 0.2048 0 0.4864 0 0.759467 0 c 5.38453 0 10.7605 0.349867 16.0085 1.1008 c 67.8656 8.6272 120.431 66.6368 120.431 136.858 c 0 62.0203 -40.9771 114.5 -97.2629 131.823 c 0.836267 18.6965 4.82987 37.3248 12.0832 55.7397 c 8.13227 20.9664 19.3109 39.8677 33.5275 56.7637 c 14.208 16.9728 30.8309 30.7029 49.9456 41.3269 c 19.0293 10.6155 39.4581 15.9232 61.1755 15.9232 c 18.7648 0 36.4288 -4.34347 53.0517 -12.8939 c 16.6229 -8.6272 31.8037 -19.6693 45.3888 -33.1861 c 13.5936 -13.4485 25.1051 -28.6208 34.4149 -45.5253 c 2.28693 -4.1216 4.42027 -8.20053 6.3488 -12.2709 c -35.8059 -16.2731 -60.6976 -52.352 -60.6976 -94.2251 c 0 -57.1136 46.3531 -103.467 103.475 -103.467 c 57.0965 0 103.467 46.3531 103.467 103.467 c 0 41.1819 -24.1493 76.7744 -58.9824 93.4741 c -2.4832 16.3499 -5.38453 32.8277 -8.74667 49.5872 c -6.08427 29.7984 -13.6021 59.4688 -22.6987 88.9856 c -9.04533 29.5168 -19.6608 58.0864 -31.7355 85.5979 c -12.0747 27.5285 -25.3867 52.7104 -39.9445 75.6736 c -50.1419 17.8005 -102.161 31.3856 -155.964 40.832 c -53.8027 9.45493 -109.201 14.2165 -166.033 14.2165 c -56.8405 0 -112.017 -4.7616 -165.487 -14.2165 c -53.5296 -9.4464 -105.685 -23.0315 -156.51 -40.832 c -14.4896 -22.9632 -27.8016 -48.1536 -39.8763 -75.6736 c -12.1429 -27.52 -22.6901 -56.0811 -31.8123 -85.5979 c -9.02827 -29.5168 -16.7595 -59.1872 -23.1083 -88.9856 c -3.65227 -17.3141 -6.69013 -34.3467 -9.0368 -51.2512 c -33.1691 -17.2459 -55.7995 -51.8656 -55.7995 -91.8101 c 0 -57.1136 46.3616 -103.467 103.467 -103.467 c 57.1136 0 103.467 46.3531 103.467 103.467 C 227.533 449.459 201.532 486.221 164.489 501.956 L 164.489 501.956 Z" fill="#8a8a8a" /></svg>