<?xml version="1.0" standalone="no"?><!DOCTYPE svg PUBLIC "-//W3C//DTD SVG 1.1//EN" "http://www.w3.org/Graphics/SVG/1.1/DTD/svg11.dtd"><svg class="icon" width="16px" height="16.00px" viewBox="0 0 1024 1024" version="1.1" xmlns="http://www.w3.org/2000/svg"><path d="M668.775273 412.598141l80.539844-119.805846a28.28176 28.28176 0 0 0 4.781544-15.706401V118.78196c0-31.042155-25.257203-56.286048-56.286048-56.286048H321.62081c-31.028845 0-56.286048 25.243893-56.286047 56.286048v158.303934a28.279713 28.279713 0 0 0 4.562433 15.37671l79.096165 121.193211C266.799942 466.639832 212.264738 558.988145 212.264738 663.843218c0 164.020286 133.430688 297.450973 297.450974 297.450973s297.450973-133.430688 297.450973-297.450973c0-105.559505-55.273425-198.438191-138.391412-251.245077z m-159.059561-46.205897a297.524693 297.524693 0 0 0-61.700354 6.452525V118.78196h123.399684v254.062809a297.50012 297.50012 0 0 0-61.69933-6.452525zM697.811637 268.510855l-70.109524 104.28784V118.78196H697.811637v149.728895zM321.62081 118.78196h70.109524V376.158062l-70.109524-107.441406V118.78196z m188.094902 786.227207c-132.991441 0-241.165949-108.187819-241.16595-241.164926s108.173485-241.165949 241.16595-241.165949 241.165949 108.187819 241.165949 241.165949-108.174508 241.164926-241.165949 241.164926z" fill="#3E3A39" /><path d="M509.715712 467.241877c-108.39362 0-196.58803 88.193386-196.58803 196.601341s88.193386 196.601341 196.58803 196.60134c108.421265 0 196.614651-88.193386 196.614651-196.60134s-88.193386-196.601341-196.614651-196.601341z m0 336.917657c-77.365799 0-140.301982-62.950518-140.301982-140.315293s62.936183-140.315293 140.301982-140.315292 140.329627 62.950518 140.329627 140.315292-62.963828 140.315293-140.329627 140.315293z" fill="#3E3A39" /></svg>